ISO-10303-21;
HEADER;
/* Generated by software containing ST-Developer
 * from STEP Tools, Inc. (www.steptools.com) 
 */

FILE_DESCRIPTION(
/* description */ (''),
/* implementation_level */ '2;1');

FILE_NAME(
/* name */ 'HackpadBottom.step',
/* time_stamp */ '2026-08-20T19:44:58+12:00',
/* author */ (''),
/* organization */ (''),
/* preprocessor_version */ 'ST-DEVELOPER v20.1',
/* originating_system */ 'Autodesk Translation Framework v15.8.0.0',
/* authorisation */ '');

FILE_SCHEMA (('AUTOMOTIVE_DESIGN { 1 0 10303 214 3 1 1 }'));
ENDSEC;

DATA;
#10=MECHANICAL_DESIGN_GEOMETRIC_PRESENTATION_REPRESENTATION('',(#13),#1025);
#11=SHAPE_REPRESENTATION_RELATIONSHIP('SRR','None',#1032,#12);
#12=ADVANCED_BREP_SHAPE_REPRESENTATION('',(#14),#1024);
#13=STYLED_ITEM('',(#1041),#14);
#14=MANIFOLD_SOLID_BREP('Body1',#609);
#15=CYLINDRICAL_SURFACE('',#644,4.99999999999999);
#16=CYLINDRICAL_SURFACE('',#646,5.00000000000002);
#17=CYLINDRICAL_SURFACE('',#648,4.99999999999999);
#18=CYLINDRICAL_SURFACE('',#650,5.00000000000001);
#19=CYLINDRICAL_SURFACE('',#653,10.);
#20=CYLINDRICAL_SURFACE('',#656,10.);
#21=CYLINDRICAL_SURFACE('',#659,9.99999999999999);
#22=CYLINDRICAL_SURFACE('',#662,9.99999999999999);
#23=CYLINDRICAL_SURFACE('',#664,1.7);
#24=CYLINDRICAL_SURFACE('',#667,1.7);
#25=CYLINDRICAL_SURFACE('',#670,1.7);
#26=CYLINDRICAL_SURFACE('',#673,1.7);
#27=FACE_BOUND('',#95,.T.);
#28=FACE_BOUND('',#122,.T.);
#29=FACE_BOUND('',#123,.T.);
#30=FACE_BOUND('',#124,.T.);
#31=FACE_BOUND('',#125,.T.);
#32=FACE_BOUND('',#127,.T.);
#33=FACE_BOUND('',#128,.T.);
#34=FACE_BOUND('',#129,.T.);
#35=FACE_BOUND('',#130,.T.);
#36=CIRCLE('',#627,9.99999999999999);
#37=CIRCLE('',#628,9.99999999999999);
#38=CIRCLE('',#629,10.);
#39=CIRCLE('',#630,10.);
#40=CIRCLE('',#631,4.99999999999999);
#41=CIRCLE('',#632,5.00000000000002);
#42=CIRCLE('',#633,5.00000000000001);
#43=CIRCLE('',#634,4.99999999999999);
#44=CIRCLE('',#645,4.99999999999999);
#45=CIRCLE('',#647,5.00000000000002);
#46=CIRCLE('',#649,4.99999999999999);
#47=CIRCLE('',#651,5.00000000000001);
#48=CIRCLE('',#654,10.);
#49=CIRCLE('',#657,10.);
#50=CIRCLE('',#660,9.99999999999999);
#51=CIRCLE('',#663,9.99999999999999);
#52=CIRCLE('',#665,1.7);
#53=CIRCLE('',#666,1.7);
#54=CIRCLE('',#668,1.7);
#55=CIRCLE('',#669,1.7);
#56=CIRCLE('',#671,1.7);
#57=CIRCLE('',#672,1.7);
#58=CIRCLE('',#674,1.7);
#59=CIRCLE('',#675,1.7);
#60=FACE_OUTER_BOUND('',#91,.T.);
#61=FACE_OUTER_BOUND('',#92,.T.);
#62=FACE_OUTER_BOUND('',#93,.T.);
#63=FACE_OUTER_BOUND('',#94,.T.);
#64=FACE_OUTER_BOUND('',#96,.T.);
#65=FACE_OUTER_BOUND('',#97,.T.);
#66=FACE_OUTER_BOUND('',#98,.T.);
#67=FACE_OUTER_BOUND('',#99,.T.);
#68=FACE_OUTER_BOUND('',#100,.T.);
#69=FACE_OUTER_BOUND('',#101,.T.);
#70=FACE_OUTER_BOUND('',#102,.T.);
#71=FACE_OUTER_BOUND('',#103,.T.);
#72=FACE_OUTER_BOUND('',#104,.T.);
#73=FACE_OUTER_BOUND('',#105,.T.);
#74=FACE_OUTER_BOUND('',#106,.T.);
#75=FACE_OUTER_BOUND('',#107,.T.);
#76=FACE_OUTER_BOUND('',#108,.T.);
#77=FACE_OUTER_BOUND('',#109,.T.);
#78=FACE_OUTER_BOUND('',#110,.T.);
#79=FACE_OUTER_BOUND('',#111,.T.);
#80=FACE_OUTER_BOUND('',#112,.T.);
#81=FACE_OUTER_BOUND('',#113,.T.);
#82=FACE_OUTER_BOUND('',#114,.T.);
#83=FACE_OUTER_BOUND('',#115,.T.);
#84=FACE_OUTER_BOUND('',#116,.T.);
#85=FACE_OUTER_BOUND('',#117,.T.);
#86=FACE_OUTER_BOUND('',#118,.T.);
#87=FACE_OUTER_BOUND('',#119,.T.);
#88=FACE_OUTER_BOUND('',#120,.T.);
#89=FACE_OUTER_BOUND('',#121,.T.);
#90=FACE_OUTER_BOUND('',#126,.T.);
#91=EDGE_LOOP('',(#391,#392,#393,#394));
#92=EDGE_LOOP('',(#395,#396,#397,#398));
#93=EDGE_LOOP('',(#399,#400,#401,#402));
#94=EDGE_LOOP('',(#403,#404,#405,#406,#407,#408,#409,#410));
#95=EDGE_LOOP('',(#411,#412,#413,#414,#415,#416,#417,#418,#419,#420,#421,
#422,#423,#424,#425,#426));
#96=EDGE_LOOP('',(#427,#428,#429,#430));
#97=EDGE_LOOP('',(#431,#432,#433,#434));
#98=EDGE_LOOP('',(#435,#436,#437,#438));
#99=EDGE_LOOP('',(#439,#440,#441,#442));
#100=EDGE_LOOP('',(#443,#444,#445,#446));
#101=EDGE_LOOP('',(#447,#448,#449,#450));
#102=EDGE_LOOP('',(#451,#452,#453,#454));
#103=EDGE_LOOP('',(#455,#456,#457,#458));
#104=EDGE_LOOP('',(#459,#460,#461,#462));
#105=EDGE_LOOP('',(#463,#464,#465,#466));
#106=EDGE_LOOP('',(#467,#468,#469,#470));
#107=EDGE_LOOP('',(#471,#472,#473,#474));
#108=EDGE_LOOP('',(#475,#476,#477,#478));
#109=EDGE_LOOP('',(#479,#480,#481,#482));
#110=EDGE_LOOP('',(#483,#484,#485,#486));
#111=EDGE_LOOP('',(#487,#488,#489,#490));
#112=EDGE_LOOP('',(#491,#492,#493,#494));
#113=EDGE_LOOP('',(#495,#496,#497,#498));
#114=EDGE_LOOP('',(#499,#500,#501,#502));
#115=EDGE_LOOP('',(#503,#504,#505,#506));
#116=EDGE_LOOP('',(#507,#508,#509,#510));
#117=EDGE_LOOP('',(#511,#512,#513,#514));
#118=EDGE_LOOP('',(#515,#516,#517,#518));
#119=EDGE_LOOP('',(#519,#520,#521,#522));
#120=EDGE_LOOP('',(#523,#524,#525,#526));
#121=EDGE_LOOP('',(#527,#528,#529,#530,#531,#532,#533,#534,#535,#536,#537,
#538,#539,#540,#541,#542));
#122=EDGE_LOOP('',(#543));
#123=EDGE_LOOP('',(#544));
#124=EDGE_LOOP('',(#545));
#125=EDGE_LOOP('',(#546));
#126=EDGE_LOOP('',(#547,#548,#549,#550,#551,#552,#553,#554));
#127=EDGE_LOOP('',(#555));
#128=EDGE_LOOP('',(#556));
#129=EDGE_LOOP('',(#557));
#130=EDGE_LOOP('',(#558));
#131=LINE('',#854,#191);
#132=LINE('',#856,#192);
#133=LINE('',#858,#193);
#134=LINE('',#859,#194);
#135=LINE('',#863,#195);
#136=LINE('',#864,#196);
#137=LINE('',#865,#197);
#138=LINE('',#869,#198);
#139=LINE('',#870,#199);
#140=LINE('',#871,#200);
#141=LINE('',#877,#201);
#142=LINE('',#881,#202);
#143=LINE('',#885,#203);
#144=LINE('',#888,#204);
#145=LINE('',#892,#205);
#146=LINE('',#894,#206);
#147=LINE('',#896,#207);
#148=LINE('',#900,#208);
#149=LINE('',#902,#209);
#150=LINE('',#904,#210);
#151=LINE('',#908,#211);
#152=LINE('',#910,#212);
#153=LINE('',#912,#213);
#154=LINE('',#916,#214);
#155=LINE('',#918,#215);
#156=LINE('',#919,#216);
#157=LINE('',#922,#217);
#158=LINE('',#924,#218);
#159=LINE('',#925,#219);
#160=LINE('',#927,#220);
#161=LINE('',#930,#221);
#162=LINE('',#932,#222);
#163=LINE('',#933,#223);
#164=LINE('',#936,#224);
#165=LINE('',#938,#225);
#166=LINE('',#939,#226);
#167=LINE('',#941,#227);
#168=LINE('',#944,#228);
#169=LINE('',#946,#229);
#170=LINE('',#947,#230);
#171=LINE('',#950,#231);
#172=LINE('',#951,#232);
#173=LINE('',#954,#233);
#174=LINE('',#955,#234);
#175=LINE('',#967,#235);
#176=LINE('',#968,#236);
#177=LINE('',#969,#237);
#178=LINE('',#973,#238);
#179=LINE('',#976,#239);
#180=LINE('',#977,#240);
#181=LINE('',#981,#241);
#182=LINE('',#984,#242);
#183=LINE('',#985,#243);
#184=LINE('',#989,#244);
#185=LINE('',#992,#245);
#186=LINE('',#993,#246);
#187=LINE('',#1000,#247);
#188=LINE('',#1006,#248);
#189=LINE('',#1012,#249);
#190=LINE('',#1018,#250);
#191=VECTOR('',#682,10.);
#192=VECTOR('',#683,10.);
#193=VECTOR('',#684,10.);
#194=VECTOR('',#685,10.);
#195=VECTOR('',#688,10.);
#196=VECTOR('',#689,10.);
#197=VECTOR('',#690,10.);
#198=VECTOR('',#693,10.);
#199=VECTOR('',#694,10.);
#200=VECTOR('',#695,10.);
#201=VECTOR('',#700,10.);
#202=VECTOR('',#703,10.);
#203=VECTOR('',#706,10.);
#204=VECTOR('',#709,10.);
#205=VECTOR('',#712,10.);
#206=VECTOR('',#713,10.);
#207=VECTOR('',#714,10.);
#208=VECTOR('',#717,10.);
#209=VECTOR('',#718,10.);
#210=VECTOR('',#719,10.);
#211=VECTOR('',#722,10.);
#212=VECTOR('',#723,10.);
#213=VECTOR('',#724,10.);
#214=VECTOR('',#729,10.);
#215=VECTOR('',#730,10.);
#216=VECTOR('',#731,10.);
#217=VECTOR('',#734,10.);
#218=VECTOR('',#735,10.);
#219=VECTOR('',#736,10.);
#220=VECTOR('',#739,10.);
#221=VECTOR('',#742,10.);
#222=VECTOR('',#743,10.);
#223=VECTOR('',#744,10.);
#224=VECTOR('',#747,10.);
#225=VECTOR('',#748,10.);
#226=VECTOR('',#749,10.);
#227=VECTOR('',#752,10.);
#228=VECTOR('',#755,10.);
#229=VECTOR('',#756,10.);
#230=VECTOR('',#757,10.);
#231=VECTOR('',#760,10.);
#232=VECTOR('',#761,10.);
#233=VECTOR('',#764,10.);
#234=VECTOR('',#765,10.);
#235=VECTOR('',#784,10.);
#236=VECTOR('',#785,10.);
#237=VECTOR('',#786,10.);
#238=VECTOR('',#791,10.);
#239=VECTOR('',#794,10.);
#240=VECTOR('',#795,10.);
#241=VECTOR('',#800,10.);
#242=VECTOR('',#803,10.);
#243=VECTOR('',#804,10.);
#244=VECTOR('',#809,10.);
#245=VECTOR('',#812,10.);
#246=VECTOR('',#813,10.);
#247=VECTOR('',#822,1.7);
#248=VECTOR('',#829,1.7);
#249=VECTOR('',#836,1.7);
#250=VECTOR('',#843,1.7);
#251=VERTEX_POINT('',#852);
#252=VERTEX_POINT('',#853);
#253=VERTEX_POINT('',#855);
#254=VERTEX_POINT('',#857);
#255=VERTEX_POINT('',#861);
#256=VERTEX_POINT('',#862);
#257=VERTEX_POINT('',#867);
#258=VERTEX_POINT('',#868);
#259=VERTEX_POINT('',#873);
#260=VERTEX_POINT('',#874);
#261=VERTEX_POINT('',#876);
#262=VERTEX_POINT('',#878);
#263=VERTEX_POINT('',#880);
#264=VERTEX_POINT('',#882);
#265=VERTEX_POINT('',#884);
#266=VERTEX_POINT('',#886);
#267=VERTEX_POINT('',#889);
#268=VERTEX_POINT('',#891);
#269=VERTEX_POINT('',#893);
#270=VERTEX_POINT('',#895);
#271=VERTEX_POINT('',#897);
#272=VERTEX_POINT('',#899);
#273=VERTEX_POINT('',#901);
#274=VERTEX_POINT('',#903);
#275=VERTEX_POINT('',#905);
#276=VERTEX_POINT('',#907);
#277=VERTEX_POINT('',#909);
#278=VERTEX_POINT('',#911);
#279=VERTEX_POINT('',#915);
#280=VERTEX_POINT('',#917);
#281=VERTEX_POINT('',#921);
#282=VERTEX_POINT('',#923);
#283=VERTEX_POINT('',#929);
#284=VERTEX_POINT('',#931);
#285=VERTEX_POINT('',#935);
#286=VERTEX_POINT('',#937);
#287=VERTEX_POINT('',#943);
#288=VERTEX_POINT('',#945);
#289=VERTEX_POINT('',#949);
#290=VERTEX_POINT('',#953);
#291=VERTEX_POINT('',#965);
#292=VERTEX_POINT('',#966);
#293=VERTEX_POINT('',#971);
#294=VERTEX_POINT('',#975);
#295=VERTEX_POINT('',#979);
#296=VERTEX_POINT('',#983);
#297=VERTEX_POINT('',#987);
#298=VERTEX_POINT('',#991);
#299=VERTEX_POINT('',#997);
#300=VERTEX_POINT('',#999);
#301=VERTEX_POINT('',#1003);
#302=VERTEX_POINT('',#1005);
#303=VERTEX_POINT('',#1009);
#304=VERTEX_POINT('',#1011);
#305=VERTEX_POINT('',#1015);
#306=VERTEX_POINT('',#1017);
#307=EDGE_CURVE('',#251,#252,#131,.T.);
#308=EDGE_CURVE('',#253,#251,#132,.T.);
#309=EDGE_CURVE('',#254,#253,#133,.T.);
#310=EDGE_CURVE('',#252,#254,#134,.T.);
#311=EDGE_CURVE('',#255,#256,#135,.T.);
#312=EDGE_CURVE('',#252,#256,#136,.T.);
#313=EDGE_CURVE('',#255,#254,#137,.T.);
#314=EDGE_CURVE('',#257,#258,#138,.T.);
#315=EDGE_CURVE('',#257,#253,#139,.T.);
#316=EDGE_CURVE('',#258,#251,#140,.T.);
#317=EDGE_CURVE('',#259,#260,#36,.T.);
#318=EDGE_CURVE('',#260,#261,#141,.T.);
#319=EDGE_CURVE('',#261,#262,#37,.T.);
#320=EDGE_CURVE('',#262,#263,#142,.T.);
#321=EDGE_CURVE('',#263,#264,#38,.T.);
#322=EDGE_CURVE('',#264,#265,#143,.T.);
#323=EDGE_CURVE('',#265,#266,#39,.T.);
#324=EDGE_CURVE('',#266,#259,#144,.T.);
#325=EDGE_CURVE('',#256,#267,#40,.T.);
#326=EDGE_CURVE('',#267,#268,#145,.T.);
#327=EDGE_CURVE('',#268,#269,#146,.T.);
#328=EDGE_CURVE('',#269,#270,#147,.T.);
#329=EDGE_CURVE('',#270,#271,#41,.T.);
#330=EDGE_CURVE('',#271,#272,#148,.T.);
#331=EDGE_CURVE('',#272,#273,#149,.T.);
#332=EDGE_CURVE('',#273,#274,#150,.T.);
#333=EDGE_CURVE('',#274,#275,#42,.T.);
#334=EDGE_CURVE('',#275,#276,#151,.T.);
#335=EDGE_CURVE('',#276,#277,#152,.T.);
#336=EDGE_CURVE('',#277,#278,#153,.T.);
#337=EDGE_CURVE('',#278,#258,#43,.T.);
#338=EDGE_CURVE('',#279,#278,#154,.T.);
#339=EDGE_CURVE('',#277,#280,#155,.T.);
#340=EDGE_CURVE('',#279,#280,#156,.T.);
#341=EDGE_CURVE('',#281,#275,#157,.T.);
#342=EDGE_CURVE('',#281,#282,#158,.T.);
#343=EDGE_CURVE('',#282,#276,#159,.T.);
#344=EDGE_CURVE('',#280,#282,#160,.T.);
#345=EDGE_CURVE('',#283,#274,#161,.T.);
#346=EDGE_CURVE('',#273,#284,#162,.T.);
#347=EDGE_CURVE('',#283,#284,#163,.T.);
#348=EDGE_CURVE('',#285,#271,#164,.T.);
#349=EDGE_CURVE('',#285,#286,#165,.T.);
#350=EDGE_CURVE('',#286,#272,#166,.T.);
#351=EDGE_CURVE('',#284,#286,#167,.T.);
#352=EDGE_CURVE('',#287,#268,#168,.T.);
#353=EDGE_CURVE('',#288,#287,#169,.T.);
#354=EDGE_CURVE('',#269,#288,#170,.T.);
#355=EDGE_CURVE('',#289,#270,#171,.T.);
#356=EDGE_CURVE('',#289,#288,#172,.T.);
#357=EDGE_CURVE('',#290,#267,#173,.T.);
#358=EDGE_CURVE('',#290,#287,#174,.T.);
#359=EDGE_CURVE('',#290,#255,#44,.T.);
#360=EDGE_CURVE('',#285,#289,#45,.T.);
#361=EDGE_CURVE('',#257,#279,#46,.T.);
#362=EDGE_CURVE('',#281,#283,#47,.T.);
#363=EDGE_CURVE('',#291,#292,#175,.T.);
#364=EDGE_CURVE('',#292,#259,#176,.T.);
#365=EDGE_CURVE('',#291,#266,#177,.T.);
#366=EDGE_CURVE('',#293,#291,#48,.T.);
#367=EDGE_CURVE('',#293,#265,#178,.T.);
#368=EDGE_CURVE('',#294,#293,#179,.T.);
#369=EDGE_CURVE('',#294,#264,#180,.T.);
#370=EDGE_CURVE('',#295,#294,#49,.T.);
#371=EDGE_CURVE('',#295,#263,#181,.T.);
#372=EDGE_CURVE('',#296,#295,#182,.T.);
#373=EDGE_CURVE('',#296,#262,#183,.T.);
#374=EDGE_CURVE('',#297,#296,#50,.T.);
#375=EDGE_CURVE('',#297,#261,#184,.T.);
#376=EDGE_CURVE('',#298,#297,#185,.T.);
#377=EDGE_CURVE('',#298,#260,#186,.T.);
#378=EDGE_CURVE('',#292,#298,#51,.T.);
#379=EDGE_CURVE('',#299,#299,#52,.T.);
#380=EDGE_CURVE('',#299,#300,#187,.T.);
#381=EDGE_CURVE('',#300,#300,#53,.T.);
#382=EDGE_CURVE('',#301,#301,#54,.T.);
#383=EDGE_CURVE('',#301,#302,#188,.T.);
#384=EDGE_CURVE('',#302,#302,#55,.T.);
#385=EDGE_CURVE('',#303,#303,#56,.T.);
#386=EDGE_CURVE('',#303,#304,#189,.T.);
#387=EDGE_CURVE('',#304,#304,#57,.T.);
#388=EDGE_CURVE('',#305,#305,#58,.T.);
#389=EDGE_CURVE('',#305,#306,#190,.T.);
#390=EDGE_CURVE('',#306,#306,#59,.T.);
#391=ORIENTED_EDGE('',*,*,#307,.F.);
#392=ORIENTED_EDGE('',*,*,#308,.F.);
#393=ORIENTED_EDGE('',*,*,#309,.F.);
#394=ORIENTED_EDGE('',*,*,#310,.F.);
#395=ORIENTED_EDGE('',*,*,#311,.T.);
#396=ORIENTED_EDGE('',*,*,#312,.F.);
#397=ORIENTED_EDGE('',*,*,#310,.T.);
#398=ORIENTED_EDGE('',*,*,#313,.F.);
#399=ORIENTED_EDGE('',*,*,#314,.F.);
#400=ORIENTED_EDGE('',*,*,#315,.T.);
#401=ORIENTED_EDGE('',*,*,#308,.T.);
#402=ORIENTED_EDGE('',*,*,#316,.F.);
#403=ORIENTED_EDGE('',*,*,#317,.T.);
#404=ORIENTED_EDGE('',*,*,#318,.T.);
#405=ORIENTED_EDGE('',*,*,#319,.T.);
#406=ORIENTED_EDGE('',*,*,#320,.T.);
#407=ORIENTED_EDGE('',*,*,#321,.T.);
#408=ORIENTED_EDGE('',*,*,#322,.T.);
#409=ORIENTED_EDGE('',*,*,#323,.T.);
#410=ORIENTED_EDGE('',*,*,#324,.T.);
#411=ORIENTED_EDGE('',*,*,#316,.T.);
#412=ORIENTED_EDGE('',*,*,#307,.T.);
#413=ORIENTED_EDGE('',*,*,#312,.T.);
#414=ORIENTED_EDGE('',*,*,#325,.T.);
#415=ORIENTED_EDGE('',*,*,#326,.T.);
#416=ORIENTED_EDGE('',*,*,#327,.T.);
#417=ORIENTED_EDGE('',*,*,#328,.T.);
#418=ORIENTED_EDGE('',*,*,#329,.T.);
#419=ORIENTED_EDGE('',*,*,#330,.T.);
#420=ORIENTED_EDGE('',*,*,#331,.T.);
#421=ORIENTED_EDGE('',*,*,#332,.T.);
#422=ORIENTED_EDGE('',*,*,#333,.T.);
#423=ORIENTED_EDGE('',*,*,#334,.T.);
#424=ORIENTED_EDGE('',*,*,#335,.T.);
#425=ORIENTED_EDGE('',*,*,#336,.T.);
#426=ORIENTED_EDGE('',*,*,#337,.T.);
#427=ORIENTED_EDGE('',*,*,#338,.T.);
#428=ORIENTED_EDGE('',*,*,#336,.F.);
#429=ORIENTED_EDGE('',*,*,#339,.T.);
#430=ORIENTED_EDGE('',*,*,#340,.F.);
#431=ORIENTED_EDGE('',*,*,#341,.F.);
#432=ORIENTED_EDGE('',*,*,#342,.T.);
#433=ORIENTED_EDGE('',*,*,#343,.T.);
#434=ORIENTED_EDGE('',*,*,#334,.F.);
#435=ORIENTED_EDGE('',*,*,#335,.F.);
#436=ORIENTED_EDGE('',*,*,#343,.F.);
#437=ORIENTED_EDGE('',*,*,#344,.F.);
#438=ORIENTED_EDGE('',*,*,#339,.F.);
#439=ORIENTED_EDGE('',*,*,#345,.T.);
#440=ORIENTED_EDGE('',*,*,#332,.F.);
#441=ORIENTED_EDGE('',*,*,#346,.T.);
#442=ORIENTED_EDGE('',*,*,#347,.F.);
#443=ORIENTED_EDGE('',*,*,#348,.F.);
#444=ORIENTED_EDGE('',*,*,#349,.T.);
#445=ORIENTED_EDGE('',*,*,#350,.T.);
#446=ORIENTED_EDGE('',*,*,#330,.F.);
#447=ORIENTED_EDGE('',*,*,#331,.F.);
#448=ORIENTED_EDGE('',*,*,#350,.F.);
#449=ORIENTED_EDGE('',*,*,#351,.F.);
#450=ORIENTED_EDGE('',*,*,#346,.F.);
#451=ORIENTED_EDGE('',*,*,#327,.F.);
#452=ORIENTED_EDGE('',*,*,#352,.F.);
#453=ORIENTED_EDGE('',*,*,#353,.F.);
#454=ORIENTED_EDGE('',*,*,#354,.F.);
#455=ORIENTED_EDGE('',*,*,#355,.T.);
#456=ORIENTED_EDGE('',*,*,#328,.F.);
#457=ORIENTED_EDGE('',*,*,#354,.T.);
#458=ORIENTED_EDGE('',*,*,#356,.F.);
#459=ORIENTED_EDGE('',*,*,#357,.F.);
#460=ORIENTED_EDGE('',*,*,#358,.T.);
#461=ORIENTED_EDGE('',*,*,#352,.T.);
#462=ORIENTED_EDGE('',*,*,#326,.F.);
#463=ORIENTED_EDGE('',*,*,#359,.F.);
#464=ORIENTED_EDGE('',*,*,#357,.T.);
#465=ORIENTED_EDGE('',*,*,#325,.F.);
#466=ORIENTED_EDGE('',*,*,#311,.F.);
#467=ORIENTED_EDGE('',*,*,#360,.F.);
#468=ORIENTED_EDGE('',*,*,#348,.T.);
#469=ORIENTED_EDGE('',*,*,#329,.F.);
#470=ORIENTED_EDGE('',*,*,#355,.F.);
#471=ORIENTED_EDGE('',*,*,#361,.F.);
#472=ORIENTED_EDGE('',*,*,#314,.T.);
#473=ORIENTED_EDGE('',*,*,#337,.F.);
#474=ORIENTED_EDGE('',*,*,#338,.F.);
#475=ORIENTED_EDGE('',*,*,#362,.F.);
#476=ORIENTED_EDGE('',*,*,#341,.T.);
#477=ORIENTED_EDGE('',*,*,#333,.F.);
#478=ORIENTED_EDGE('',*,*,#345,.F.);
#479=ORIENTED_EDGE('',*,*,#363,.T.);
#480=ORIENTED_EDGE('',*,*,#364,.T.);
#481=ORIENTED_EDGE('',*,*,#324,.F.);
#482=ORIENTED_EDGE('',*,*,#365,.F.);
#483=ORIENTED_EDGE('',*,*,#366,.T.);
#484=ORIENTED_EDGE('',*,*,#365,.T.);
#485=ORIENTED_EDGE('',*,*,#323,.F.);
#486=ORIENTED_EDGE('',*,*,#367,.F.);
#487=ORIENTED_EDGE('',*,*,#368,.T.);
#488=ORIENTED_EDGE('',*,*,#367,.T.);
#489=ORIENTED_EDGE('',*,*,#322,.F.);
#490=ORIENTED_EDGE('',*,*,#369,.F.);
#491=ORIENTED_EDGE('',*,*,#370,.T.);
#492=ORIENTED_EDGE('',*,*,#369,.T.);
#493=ORIENTED_EDGE('',*,*,#321,.F.);
#494=ORIENTED_EDGE('',*,*,#371,.F.);
#495=ORIENTED_EDGE('',*,*,#372,.T.);
#496=ORIENTED_EDGE('',*,*,#371,.T.);
#497=ORIENTED_EDGE('',*,*,#320,.F.);
#498=ORIENTED_EDGE('',*,*,#373,.F.);
#499=ORIENTED_EDGE('',*,*,#374,.T.);
#500=ORIENTED_EDGE('',*,*,#373,.T.);
#501=ORIENTED_EDGE('',*,*,#319,.F.);
#502=ORIENTED_EDGE('',*,*,#375,.F.);
#503=ORIENTED_EDGE('',*,*,#376,.T.);
#504=ORIENTED_EDGE('',*,*,#375,.T.);
#505=ORIENTED_EDGE('',*,*,#318,.F.);
#506=ORIENTED_EDGE('',*,*,#377,.F.);
#507=ORIENTED_EDGE('',*,*,#378,.T.);
#508=ORIENTED_EDGE('',*,*,#377,.T.);
#509=ORIENTED_EDGE('',*,*,#317,.F.);
#510=ORIENTED_EDGE('',*,*,#364,.F.);
#511=ORIENTED_EDGE('',*,*,#379,.F.);
#512=ORIENTED_EDGE('',*,*,#380,.T.);
#513=ORIENTED_EDGE('',*,*,#381,.T.);
#514=ORIENTED_EDGE('',*,*,#380,.F.);
#515=ORIENTED_EDGE('',*,*,#382,.F.);
#516=ORIENTED_EDGE('',*,*,#383,.T.);
#517=ORIENTED_EDGE('',*,*,#384,.T.);
#518=ORIENTED_EDGE('',*,*,#383,.F.);
#519=ORIENTED_EDGE('',*,*,#385,.F.);
#520=ORIENTED_EDGE('',*,*,#386,.T.);
#521=ORIENTED_EDGE('',*,*,#387,.T.);
#522=ORIENTED_EDGE('',*,*,#386,.F.);
#523=ORIENTED_EDGE('',*,*,#388,.F.);
#524=ORIENTED_EDGE('',*,*,#389,.T.);
#525=ORIENTED_EDGE('',*,*,#390,.T.);
#526=ORIENTED_EDGE('',*,*,#389,.F.);
#527=ORIENTED_EDGE('',*,*,#360,.T.);
#528=ORIENTED_EDGE('',*,*,#356,.T.);
#529=ORIENTED_EDGE('',*,*,#353,.T.);
#530=ORIENTED_EDGE('',*,*,#358,.F.);
#531=ORIENTED_EDGE('',*,*,#359,.T.);
#532=ORIENTED_EDGE('',*,*,#313,.T.);
#533=ORIENTED_EDGE('',*,*,#309,.T.);
#534=ORIENTED_EDGE('',*,*,#315,.F.);
#535=ORIENTED_EDGE('',*,*,#361,.T.);
#536=ORIENTED_EDGE('',*,*,#340,.T.);
#537=ORIENTED_EDGE('',*,*,#344,.T.);
#538=ORIENTED_EDGE('',*,*,#342,.F.);
#539=ORIENTED_EDGE('',*,*,#362,.T.);
#540=ORIENTED_EDGE('',*,*,#347,.T.);
#541=ORIENTED_EDGE('',*,*,#351,.T.);
#542=ORIENTED_EDGE('',*,*,#349,.F.);
#543=ORIENTED_EDGE('',*,*,#388,.T.);
#544=ORIENTED_EDGE('',*,*,#385,.T.);
#545=ORIENTED_EDGE('',*,*,#382,.T.);
#546=ORIENTED_EDGE('',*,*,#379,.T.);
#547=ORIENTED_EDGE('',*,*,#378,.F.);
#548=ORIENTED_EDGE('',*,*,#363,.F.);
#549=ORIENTED_EDGE('',*,*,#366,.F.);
#550=ORIENTED_EDGE('',*,*,#368,.F.);
#551=ORIENTED_EDGE('',*,*,#370,.F.);
#552=ORIENTED_EDGE('',*,*,#372,.F.);
#553=ORIENTED_EDGE('',*,*,#374,.F.);
#554=ORIENTED_EDGE('',*,*,#376,.F.);
#555=ORIENTED_EDGE('',*,*,#390,.F.);
#556=ORIENTED_EDGE('',*,*,#387,.F.);
#557=ORIENTED_EDGE('',*,*,#384,.F.);
#558=ORIENTED_EDGE('',*,*,#381,.F.);
#559=PLANE('',#623);
#560=PLANE('',#624);
#561=PLANE('',#625);
#562=PLANE('',#626);
#563=PLANE('',#635);
#564=PLANE('',#636);
#565=PLANE('',#637);
#566=PLANE('',#638);
#567=PLANE('',#639);
#568=PLANE('',#640);
#569=PLANE('',#641);
#570=PLANE('',#642);
#571=PLANE('',#643);
#572=PLANE('',#652);
#573=PLANE('',#655);
#574=PLANE('',#658);
#575=PLANE('',#661);
#576=PLANE('',#676);
#577=PLANE('',#677);
#578=ADVANCED_FACE('',(#60),#559,.F.);
#579=ADVANCED_FACE('',(#61),#560,.F.);
#580=ADVANCED_FACE('',(#62),#561,.F.);
#581=ADVANCED_FACE('',(#63,#27),#562,.T.);
#582=ADVANCED_FACE('',(#64),#563,.F.);
#583=ADVANCED_FACE('',(#65),#564,.F.);
#584=ADVANCED_FACE('',(#66),#565,.F.);
#585=ADVANCED_FACE('',(#67),#566,.F.);
#586=ADVANCED_FACE('',(#68),#567,.F.);
#587=ADVANCED_FACE('',(#69),#568,.F.);
#588=ADVANCED_FACE('',(#70),#569,.F.);
#589=ADVANCED_FACE('',(#71),#570,.F.);
#590=ADVANCED_FACE('',(#72),#571,.F.);
#591=ADVANCED_FACE('',(#73),#15,.F.);
#592=ADVANCED_FACE('',(#74),#16,.F.);
#593=ADVANCED_FACE('',(#75),#17,.F.);
#594=ADVANCED_FACE('',(#76),#18,.F.);
#595=ADVANCED_FACE('',(#77),#572,.T.);
#596=ADVANCED_FACE('',(#78),#19,.T.);
#597=ADVANCED_FACE('',(#79),#573,.T.);
#598=ADVANCED_FACE('',(#80),#20,.T.);
#599=ADVANCED_FACE('',(#81),#574,.T.);
#600=ADVANCED_FACE('',(#82),#21,.T.);
#601=ADVANCED_FACE('',(#83),#575,.T.);
#602=ADVANCED_FACE('',(#84),#22,.T.);
#603=ADVANCED_FACE('',(#85),#23,.F.);
#604=ADVANCED_FACE('',(#86),#24,.F.);
#605=ADVANCED_FACE('',(#87),#25,.F.);
#606=ADVANCED_FACE('',(#88),#26,.F.);
#607=ADVANCED_FACE('',(#89,#28,#29,#30,#31),#576,.T.);
#608=ADVANCED_FACE('',(#90,#32,#33,#34,#35),#577,.F.);
#609=CLOSED_SHELL('',(#578,#579,#580,#581,#582,#583,#584,#585,#586,#587,
#588,#589,#590,#591,#592,#593,#594,#595,#596,#597,#598,#599,#600,#601,#602,
#603,#604,#605,#606,#607,#608));
#610=DERIVED_UNIT_ELEMENT(#612,1.);
#611=DERIVED_UNIT_ELEMENT(#1027,-3.);
#612=(
MASS_UNIT()
NAMED_UNIT(*)
SI_UNIT(.KILO.,.GRAM.)
);
#613=DERIVED_UNIT((#610,#611));
#614=MEASURE_REPRESENTATION_ITEM('density measure',
POSITIVE_RATIO_MEASURE(7850.),#613);
#615=PROPERTY_DEFINITION_REPRESENTATION(#620,#617);
#616=PROPERTY_DEFINITION_REPRESENTATION(#621,#618);
#617=REPRESENTATION('material name',(#619),#1024);
#618=REPRESENTATION('density',(#614),#1024);
#619=DESCRIPTIVE_REPRESENTATION_ITEM('Steel','Steel');
#620=PROPERTY_DEFINITION('material property','material name',#1034);
#621=PROPERTY_DEFINITION('material property','density of part',#1034);
#622=AXIS2_PLACEMENT_3D('',#850,#678,#679);
#623=AXIS2_PLACEMENT_3D('',#851,#680,#681);
#624=AXIS2_PLACEMENT_3D('',#860,#686,#687);
#625=AXIS2_PLACEMENT_3D('',#866,#691,#692);
#626=AXIS2_PLACEMENT_3D('',#872,#696,#697);
#627=AXIS2_PLACEMENT_3D('',#875,#698,#699);
#628=AXIS2_PLACEMENT_3D('',#879,#701,#702);
#629=AXIS2_PLACEMENT_3D('',#883,#704,#705);
#630=AXIS2_PLACEMENT_3D('',#887,#707,#708);
#631=AXIS2_PLACEMENT_3D('',#890,#710,#711);
#632=AXIS2_PLACEMENT_3D('',#898,#715,#716);
#633=AXIS2_PLACEMENT_3D('',#906,#720,#721);
#634=AXIS2_PLACEMENT_3D('',#913,#725,#726);
#635=AXIS2_PLACEMENT_3D('',#914,#727,#728);
#636=AXIS2_PLACEMENT_3D('',#920,#732,#733);
#637=AXIS2_PLACEMENT_3D('',#926,#737,#738);
#638=AXIS2_PLACEMENT_3D('',#928,#740,#741);
#639=AXIS2_PLACEMENT_3D('',#934,#745,#746);
#640=AXIS2_PLACEMENT_3D('',#940,#750,#751);
#641=AXIS2_PLACEMENT_3D('',#942,#753,#754);
#642=AXIS2_PLACEMENT_3D('',#948,#758,#759);
#643=AXIS2_PLACEMENT_3D('',#952,#762,#763);
#644=AXIS2_PLACEMENT_3D('',#956,#766,#767);
#645=AXIS2_PLACEMENT_3D('',#957,#768,#769);
#646=AXIS2_PLACEMENT_3D('',#958,#770,#771);
#647=AXIS2_PLACEMENT_3D('',#959,#772,#773);
#648=AXIS2_PLACEMENT_3D('',#960,#774,#775);
#649=AXIS2_PLACEMENT_3D('',#961,#776,#777);
#650=AXIS2_PLACEMENT_3D('',#962,#778,#779);
#651=AXIS2_PLACEMENT_3D('',#963,#780,#781);
#652=AXIS2_PLACEMENT_3D('',#964,#782,#783);
#653=AXIS2_PLACEMENT_3D('',#970,#787,#788);
#654=AXIS2_PLACEMENT_3D('',#972,#789,#790);
#655=AXIS2_PLACEMENT_3D('',#974,#792,#793);
#656=AXIS2_PLACEMENT_3D('',#978,#796,#797);
#657=AXIS2_PLACEMENT_3D('',#980,#798,#799);
#658=AXIS2_PLACEMENT_3D('',#982,#801,#802);
#659=AXIS2_PLACEMENT_3D('',#986,#805,#806);
#660=AXIS2_PLACEMENT_3D('',#988,#807,#808);
#661=AXIS2_PLACEMENT_3D('',#990,#810,#811);
#662=AXIS2_PLACEMENT_3D('',#994,#814,#815);
#663=AXIS2_PLACEMENT_3D('',#995,#816,#817);
#664=AXIS2_PLACEMENT_3D('',#996,#818,#819);
#665=AXIS2_PLACEMENT_3D('',#998,#820,#821);
#666=AXIS2_PLACEMENT_3D('',#1001,#823,#824);
#667=AXIS2_PLACEMENT_3D('',#1002,#825,#826);
#668=AXIS2_PLACEMENT_3D('',#1004,#827,#828);
#669=AXIS2_PLACEMENT_3D('',#1007,#830,#831);
#670=AXIS2_PLACEMENT_3D('',#1008,#832,#833);
#671=AXIS2_PLACEMENT_3D('',#1010,#834,#835);
#672=AXIS2_PLACEMENT_3D('',#1013,#837,#838);
#673=AXIS2_PLACEMENT_3D('',#1014,#839,#840);
#674=AXIS2_PLACEMENT_3D('',#1016,#841,#842);
#675=AXIS2_PLACEMENT_3D('',#1019,#844,#845);
#676=AXIS2_PLACEMENT_3D('',#1020,#846,#847);
#677=AXIS2_PLACEMENT_3D('',#1021,#848,#849);
#678=DIRECTION('axis',(0.,0.,1.));
#679=DIRECTION('refdir',(1.,0.,0.));
#680=DIRECTION('center_axis',(1.,0.,0.));
#681=DIRECTION('ref_axis',(0.,0.,-1.));
#682=DIRECTION('',(0.,0.,1.));
#683=DIRECTION('',(0.,1.,0.));
#684=DIRECTION('',(8.07655196599186E-17,0.,-1.));
#685=DIRECTION('',(0.,-1.,0.));
#686=DIRECTION('center_axis',(0.,0.,1.));
#687=DIRECTION('ref_axis',(0.,-1.,0.));
#688=DIRECTION('',(0.,1.,0.));
#689=DIRECTION('',(-1.,0.,0.));
#690=DIRECTION('',(1.,0.,0.));
#691=DIRECTION('center_axis',(0.,0.,-1.));
#692=DIRECTION('ref_axis',(0.,1.,0.));
#693=DIRECTION('',(0.,1.,0.));
#694=DIRECTION('',(1.,0.,0.));
#695=DIRECTION('',(1.,0.,0.));
#696=DIRECTION('center_axis',(0.,1.,0.));
#697=DIRECTION('ref_axis',(1.,0.,0.));
#698=DIRECTION('center_axis',(0.,1.,0.));
#699=DIRECTION('ref_axis',(-3.88578058618805E-16,0.,1.));
#700=DIRECTION('',(8.07655196599186E-17,0.,-1.));
#701=DIRECTION('center_axis',(0.,1.,0.));
#702=DIRECTION('ref_axis',(1.,0.,-3.33066907387547E-16));
#703=DIRECTION('',(-1.,0.,1.23382790405321E-17));
#704=DIRECTION('center_axis',(0.,1.,0.));
#705=DIRECTION('ref_axis',(-1.77635683940025E-15,0.,-1.));
#706=DIRECTION('',(0.,0.,1.));
#707=DIRECTION('center_axis',(0.,1.,0.));
#708=DIRECTION('ref_axis',(-1.,0.,1.77635683940025E-15));
#709=DIRECTION('',(1.,0.,-9.87062323242565E-17));
#710=DIRECTION('center_axis',(0.,-1.,0.));
#711=DIRECTION('ref_axis',(-7.77156117237611E-16,0.,1.));
#712=DIRECTION('',(0.,0.,1.));
#713=DIRECTION('',(-1.,0.,0.));
#714=DIRECTION('',(0.,0.,-1.));
#715=DIRECTION('center_axis',(0.,-1.,0.));
#716=DIRECTION('ref_axis',(-1.,0.,3.55271367880049E-15));
#717=DIRECTION('',(-1.,0.,0.));
#718=DIRECTION('',(0.,0.,-1.));
#719=DIRECTION('',(1.,0.,0.));
#720=DIRECTION('center_axis',(0.,-1.,0.));
#721=DIRECTION('ref_axis',(-3.55271367880049E-15,0.,-1.));
#722=DIRECTION('',(0.,0.,-1.));
#723=DIRECTION('',(1.,0.,0.));
#724=DIRECTION('',(0.,0.,1.));
#725=DIRECTION('center_axis',(0.,-1.,0.));
#726=DIRECTION('ref_axis',(1.,0.,-7.7715611723761E-16));
#727=DIRECTION('center_axis',(1.,0.,0.));
#728=DIRECTION('ref_axis',(0.,-1.,0.));
#729=DIRECTION('',(0.,1.,0.));
#730=DIRECTION('',(0.,-1.,0.));
#731=DIRECTION('',(0.,0.,-1.));
#732=DIRECTION('center_axis',(-1.,0.,0.));
#733=DIRECTION('ref_axis',(0.,1.,0.));
#734=DIRECTION('',(0.,1.,0.));
#735=DIRECTION('',(0.,0.,-1.));
#736=DIRECTION('',(0.,1.,0.));
#737=DIRECTION('center_axis',(0.,0.,-1.));
#738=DIRECTION('ref_axis',(-1.,0.,0.));
#739=DIRECTION('',(-1.,0.,0.));
#740=DIRECTION('center_axis',(0.,0.,-1.));
#741=DIRECTION('ref_axis',(0.,-1.,0.));
#742=DIRECTION('',(0.,1.,0.));
#743=DIRECTION('',(0.,-1.,0.));
#744=DIRECTION('',(-1.,0.,0.));
#745=DIRECTION('center_axis',(0.,0.,1.));
#746=DIRECTION('ref_axis',(0.,1.,0.));
#747=DIRECTION('',(0.,1.,0.));
#748=DIRECTION('',(-1.,0.,0.));
#749=DIRECTION('',(0.,1.,0.));
#750=DIRECTION('center_axis',(-1.,0.,0.));
#751=DIRECTION('ref_axis',(0.,0.,1.));
#752=DIRECTION('',(0.,0.,1.));
#753=DIRECTION('center_axis',(0.,0.,1.));
#754=DIRECTION('ref_axis',(1.,0.,0.));
#755=DIRECTION('',(0.,1.,0.));
#756=DIRECTION('',(1.,0.,-9.87062323242565E-17));
#757=DIRECTION('',(0.,-1.,0.));
#758=DIRECTION('center_axis',(-1.,0.,0.));
#759=DIRECTION('ref_axis',(0.,-1.,0.));
#760=DIRECTION('',(0.,1.,0.));
#761=DIRECTION('',(0.,0.,1.));
#762=DIRECTION('center_axis',(1.,0.,0.));
#763=DIRECTION('ref_axis',(0.,1.,0.));
#764=DIRECTION('',(0.,1.,0.));
#765=DIRECTION('',(0.,0.,1.));
#766=DIRECTION('center_axis',(0.,1.,0.));
#767=DIRECTION('ref_axis',(-7.77156117237611E-16,0.,1.));
#768=DIRECTION('center_axis',(0.,1.,0.));
#769=DIRECTION('ref_axis',(-7.77156117237611E-16,0.,1.));
#770=DIRECTION('center_axis',(0.,1.,0.));
#771=DIRECTION('ref_axis',(-1.,0.,3.55271367880049E-15));
#772=DIRECTION('center_axis',(0.,1.,0.));
#773=DIRECTION('ref_axis',(-1.,0.,3.55271367880049E-15));
#774=DIRECTION('center_axis',(0.,1.,0.));
#775=DIRECTION('ref_axis',(1.,0.,-7.7715611723761E-16));
#776=DIRECTION('center_axis',(0.,1.,0.));
#777=DIRECTION('ref_axis',(1.,0.,-7.7715611723761E-16));
#778=DIRECTION('center_axis',(0.,1.,0.));
#779=DIRECTION('ref_axis',(-3.55271367880049E-15,0.,-1.));
#780=DIRECTION('center_axis',(0.,1.,0.));
#781=DIRECTION('ref_axis',(-3.55271367880049E-15,0.,-1.));
#782=DIRECTION('center_axis',(9.87062323242565E-17,0.,1.));
#783=DIRECTION('ref_axis',(1.,0.,-9.87062323242565E-17));
#784=DIRECTION('',(1.,0.,-9.87062323242565E-17));
#785=DIRECTION('',(0.,1.,0.));
#786=DIRECTION('',(0.,1.,0.));
#787=DIRECTION('center_axis',(0.,1.,0.));
#788=DIRECTION('ref_axis',(-1.,0.,1.77635683940025E-15));
#789=DIRECTION('center_axis',(0.,1.,0.));
#790=DIRECTION('ref_axis',(-1.,0.,1.77635683940025E-15));
#791=DIRECTION('',(0.,1.,0.));
#792=DIRECTION('center_axis',(-1.,0.,0.));
#793=DIRECTION('ref_axis',(0.,0.,1.));
#794=DIRECTION('',(0.,0.,1.));
#795=DIRECTION('',(0.,1.,0.));
#796=DIRECTION('center_axis',(0.,1.,0.));
#797=DIRECTION('ref_axis',(-1.77635683940025E-15,0.,-1.));
#798=DIRECTION('center_axis',(0.,1.,0.));
#799=DIRECTION('ref_axis',(-1.77635683940025E-15,0.,-1.));
#800=DIRECTION('',(0.,1.,0.));
#801=DIRECTION('center_axis',(-1.23382790405321E-17,0.,-1.));
#802=DIRECTION('ref_axis',(-1.,0.,1.23382790405321E-17));
#803=DIRECTION('',(-1.,0.,1.23382790405321E-17));
#804=DIRECTION('',(0.,1.,0.));
#805=DIRECTION('center_axis',(0.,1.,0.));
#806=DIRECTION('ref_axis',(1.,0.,-3.33066907387547E-16));
#807=DIRECTION('center_axis',(0.,1.,0.));
#808=DIRECTION('ref_axis',(1.,0.,-3.33066907387547E-16));
#809=DIRECTION('',(0.,1.,0.));
#810=DIRECTION('center_axis',(1.,0.,8.07655196599186E-17));
#811=DIRECTION('ref_axis',(8.07655196599186E-17,0.,-1.));
#812=DIRECTION('',(8.07655196599186E-17,0.,-1.));
#813=DIRECTION('',(0.,1.,0.));
#814=DIRECTION('center_axis',(0.,1.,0.));
#815=DIRECTION('ref_axis',(-3.88578058618805E-16,0.,1.));
#816=DIRECTION('center_axis',(0.,1.,0.));
#817=DIRECTION('ref_axis',(-3.88578058618805E-16,0.,1.));
#818=DIRECTION('center_axis',(0.,1.,0.));
#819=DIRECTION('ref_axis',(1.,0.,0.));
#820=DIRECTION('center_axis',(0.,-1.,0.));
#821=DIRECTION('ref_axis',(1.,0.,0.));
#822=DIRECTION('',(0.,-1.,0.));
#823=DIRECTION('center_axis',(0.,-1.,0.));
#824=DIRECTION('ref_axis',(1.,0.,0.));
#825=DIRECTION('center_axis',(0.,1.,0.));
#826=DIRECTION('ref_axis',(1.,0.,0.));
#827=DIRECTION('center_axis',(0.,-1.,0.));
#828=DIRECTION('ref_axis',(1.,0.,0.));
#829=DIRECTION('',(0.,-1.,0.));
#830=DIRECTION('center_axis',(0.,-1.,0.));
#831=DIRECTION('ref_axis',(1.,0.,0.));
#832=DIRECTION('center_axis',(0.,1.,0.));
#833=DIRECTION('ref_axis',(1.,0.,0.));
#834=DIRECTION('center_axis',(0.,-1.,0.));
#835=DIRECTION('ref_axis',(1.,0.,0.));
#836=DIRECTION('',(0.,-1.,0.));
#837=DIRECTION('center_axis',(0.,-1.,0.));
#838=DIRECTION('ref_axis',(1.,0.,0.));
#839=DIRECTION('center_axis',(0.,1.,0.));
#840=DIRECTION('ref_axis',(1.,0.,0.));
#841=DIRECTION('center_axis',(0.,-1.,0.));
#842=DIRECTION('ref_axis',(1.,0.,0.));
#843=DIRECTION('',(0.,-1.,0.));
#844=DIRECTION('center_axis',(0.,-1.,0.));
#845=DIRECTION('ref_axis',(1.,0.,0.));
#846=DIRECTION('center_axis',(0.,1.,0.));
#847=DIRECTION('ref_axis',(1.,0.,0.));
#848=DIRECTION('center_axis',(0.,1.,0.));
#849=DIRECTION('ref_axis',(1.,0.,0.));
#850=CARTESIAN_POINT('',(0.,0.,0.));
#851=CARTESIAN_POINT('Origin',(0.4,9.,54.985));
#852=CARTESIAN_POINT('',(0.4,8.,4.99999999999999));
#853=CARTESIAN_POINT('',(0.4,8.,59.985));
#854=CARTESIAN_POINT('',(0.4,8.,43.73875));
#855=CARTESIAN_POINT('',(0.4,3.,4.99999999999999));
#856=CARTESIAN_POINT('',(0.4,0.,4.99999999999999));
#857=CARTESIAN_POINT('',(0.4,3.,59.985));
#858=CARTESIAN_POINT('',(0.399999999999995,3.,59.985));
#859=CARTESIAN_POINT('',(0.399999999999995,0.,59.985));
#860=CARTESIAN_POINT('Origin',(-4.9960036108132E-15,8.,59.985));
#861=CARTESIAN_POINT('',(0.,3.,59.985));
#862=CARTESIAN_POINT('',(0.,8.,59.985));
#863=CARTESIAN_POINT('',(-4.9960036108132E-15,0.,59.985));
#864=CARTESIAN_POINT('',(-24.9955,8.,59.985));
#865=CARTESIAN_POINT('',(0.,3.,59.985));
#866=CARTESIAN_POINT('Origin',(-5.55111512312578E-16,3.,4.99999999999999));
#867=CARTESIAN_POINT('',(0.,3.,4.99999999999999));
#868=CARTESIAN_POINT('',(0.,8.,4.99999999999999));
#869=CARTESIAN_POINT('',(-5.55111512312578E-16,0.,4.99999999999999));
#870=CARTESIAN_POINT('',(0.,3.,4.99999999999999));
#871=CARTESIAN_POINT('',(-24.9955,8.,4.99999999999999));
#872=CARTESIAN_POINT('Origin',(-49.991,8.,32.4925));
#873=CARTESIAN_POINT('',(-5.,8.,69.985));
#874=CARTESIAN_POINT('',(5.,8.,59.985));
#875=CARTESIAN_POINT('Origin',(-5.,8.,59.985));
#876=CARTESIAN_POINT('',(5.,8.,4.99999999999999));
#877=CARTESIAN_POINT('',(4.99999999999999,8.,59.985));
#878=CARTESIAN_POINT('',(-5.,8.,-5.));
#879=CARTESIAN_POINT('Origin',(-4.99999999999999,8.,4.99999999999999));
#880=CARTESIAN_POINT('',(-94.982,8.,-5.));
#881=CARTESIAN_POINT('',(-5.,8.,-5.));
#882=CARTESIAN_POINT('',(-104.982,8.,4.99999999999998));
#883=CARTESIAN_POINT('Origin',(-94.982,8.,5.00000000000001));
#884=CARTESIAN_POINT('',(-104.982,8.,59.985));
#885=CARTESIAN_POINT('',(-104.982,8.,4.99999999999999));
#886=CARTESIAN_POINT('',(-94.982,8.,69.985));
#887=CARTESIAN_POINT('Origin',(-94.982,8.,59.985));
#888=CARTESIAN_POINT('',(-94.982,8.,69.985));
#889=CARTESIAN_POINT('',(-5.,8.,64.985));
#890=CARTESIAN_POINT('Origin',(-5.,8.,59.985));
#891=CARTESIAN_POINT('',(-5.,8.,65.385));
#892=CARTESIAN_POINT('',(-5.,8.,48.73875));
#893=CARTESIAN_POINT('',(-94.982,8.,65.385));
#894=CARTESIAN_POINT('',(-69.98956491975,8.,65.385));
#895=CARTESIAN_POINT('',(-94.982,8.,64.985));
#896=CARTESIAN_POINT('',(-94.982,8.,48.73875));
#897=CARTESIAN_POINT('',(-99.982,8.,59.985));
#898=CARTESIAN_POINT('Origin',(-94.982,8.,59.985));
#899=CARTESIAN_POINT('',(-100.382,8.,59.985));
#900=CARTESIAN_POINT('',(-74.9865,8.,59.985));
#901=CARTESIAN_POINT('',(-100.382,8.,5.));
#902=CARTESIAN_POINT('',(-100.382,8.,46.23875));
#903=CARTESIAN_POINT('',(-99.982,8.,5.));
#904=CARTESIAN_POINT('',(-74.9865,8.,5.));
#905=CARTESIAN_POINT('',(-94.982,8.,0.));
#906=CARTESIAN_POINT('Origin',(-94.982,8.,5.00000000000001));
#907=CARTESIAN_POINT('',(-94.982,8.,-0.4));
#908=CARTESIAN_POINT('',(-94.982,8.,16.24625));
#909=CARTESIAN_POINT('',(-5.,8.,-0.4));
#910=CARTESIAN_POINT('',(-72.4865,8.,-0.4));
#911=CARTESIAN_POINT('',(-5.,8.,0.));
#912=CARTESIAN_POINT('',(-5.,8.,16.24625));
#913=CARTESIAN_POINT('Origin',(-4.99999999999999,8.,4.99999999999999));
#914=CARTESIAN_POINT('Origin',(-5.,8.,0.));
#915=CARTESIAN_POINT('',(-5.,3.,0.));
#916=CARTESIAN_POINT('',(-5.,0.,0.));
#917=CARTESIAN_POINT('',(-5.,3.,-0.4));
#918=CARTESIAN_POINT('',(-5.,0.,-0.4));
#919=CARTESIAN_POINT('',(-5.,3.,0.));
#920=CARTESIAN_POINT('Origin',(-94.982,3.,0.));
#921=CARTESIAN_POINT('',(-94.982,3.,0.));
#922=CARTESIAN_POINT('',(-94.982,0.,0.));
#923=CARTESIAN_POINT('',(-94.982,3.,-0.4));
#924=CARTESIAN_POINT('',(-94.982,3.,0.));
#925=CARTESIAN_POINT('',(-94.982,0.,-0.4));
#926=CARTESIAN_POINT('Origin',(-94.982,0.,-0.4));
#927=CARTESIAN_POINT('',(-5.,3.,-0.4));
#928=CARTESIAN_POINT('Origin',(-99.982,8.,5.));
#929=CARTESIAN_POINT('',(-99.982,3.,5.));
#930=CARTESIAN_POINT('',(-99.982,0.,5.));
#931=CARTESIAN_POINT('',(-100.382,3.,5.));
#932=CARTESIAN_POINT('',(-100.382,0.,5.));
#933=CARTESIAN_POINT('',(-99.982,3.,5.));
#934=CARTESIAN_POINT('Origin',(-99.982,3.,59.985));
#935=CARTESIAN_POINT('',(-99.982,3.,59.985));
#936=CARTESIAN_POINT('',(-99.982,0.,59.985));
#937=CARTESIAN_POINT('',(-100.382,3.,59.985));
#938=CARTESIAN_POINT('',(-99.982,3.,59.985));
#939=CARTESIAN_POINT('',(-100.382,0.,59.985));
#940=CARTESIAN_POINT('Origin',(-100.382,0.,59.985));
#941=CARTESIAN_POINT('',(-100.382,3.,5.));
#942=CARTESIAN_POINT('Origin',(-89.9881298395,9.,65.385));
#943=CARTESIAN_POINT('',(-5.,3.,65.385));
#944=CARTESIAN_POINT('',(-5.,0.,65.385));
#945=CARTESIAN_POINT('',(-94.982,3.,65.385));
#946=CARTESIAN_POINT('',(-94.982,3.,65.385));
#947=CARTESIAN_POINT('',(-94.982,0.,65.385));
#948=CARTESIAN_POINT('Origin',(-94.982,8.,64.985));
#949=CARTESIAN_POINT('',(-94.982,3.,64.985));
#950=CARTESIAN_POINT('',(-94.982,0.,64.985));
#951=CARTESIAN_POINT('',(-94.982,3.,64.985));
#952=CARTESIAN_POINT('Origin',(-5.,3.,64.985));
#953=CARTESIAN_POINT('',(-5.,3.,64.985));
#954=CARTESIAN_POINT('',(-5.,0.,64.985));
#955=CARTESIAN_POINT('',(-5.,3.,64.985));
#956=CARTESIAN_POINT('Origin',(-5.,0.,59.985));
#957=CARTESIAN_POINT('Origin',(-5.,3.,59.985));
#958=CARTESIAN_POINT('Origin',(-94.982,0.,59.985));
#959=CARTESIAN_POINT('Origin',(-94.982,3.,59.985));
#960=CARTESIAN_POINT('Origin',(-4.99999999999999,0.,4.99999999999999));
#961=CARTESIAN_POINT('Origin',(-4.99999999999999,3.,4.99999999999999));
#962=CARTESIAN_POINT('Origin',(-94.982,0.,5.00000000000001));
#963=CARTESIAN_POINT('Origin',(-94.982,3.,5.00000000000001));
#964=CARTESIAN_POINT('Origin',(-94.982,0.,69.985));
#965=CARTESIAN_POINT('',(-94.982,0.,69.985));
#966=CARTESIAN_POINT('',(-5.,0.,69.985));
#967=CARTESIAN_POINT('',(-94.982,0.,69.985));
#968=CARTESIAN_POINT('',(-5.,0.,69.985));
#969=CARTESIAN_POINT('',(-94.982,0.,69.985));
#970=CARTESIAN_POINT('Origin',(-94.982,0.,59.985));
#971=CARTESIAN_POINT('',(-104.982,0.,59.985));
#972=CARTESIAN_POINT('Origin',(-94.982,0.,59.985));
#973=CARTESIAN_POINT('',(-104.982,0.,59.985));
#974=CARTESIAN_POINT('Origin',(-104.982,0.,4.99999999999999));
#975=CARTESIAN_POINT('',(-104.982,0.,4.99999999999999));
#976=CARTESIAN_POINT('',(-104.982,0.,4.99999999999999));
#977=CARTESIAN_POINT('',(-104.982,0.,4.99999999999999));
#978=CARTESIAN_POINT('Origin',(-94.982,0.,5.00000000000001));
#979=CARTESIAN_POINT('',(-94.982,0.,-5.));
#980=CARTESIAN_POINT('Origin',(-94.982,0.,5.00000000000001));
#981=CARTESIAN_POINT('',(-94.982,0.,-5.));
#982=CARTESIAN_POINT('Origin',(-5.,0.,-5.));
#983=CARTESIAN_POINT('',(-5.,0.,-5.));
#984=CARTESIAN_POINT('',(-5.,0.,-5.));
#985=CARTESIAN_POINT('',(-5.,0.,-5.));
#986=CARTESIAN_POINT('Origin',(-4.99999999999999,0.,4.99999999999999));
#987=CARTESIAN_POINT('',(5.,0.,4.99999999999999));
#988=CARTESIAN_POINT('Origin',(-4.99999999999999,0.,4.99999999999999));
#989=CARTESIAN_POINT('',(5.,0.,4.99999999999999));
#990=CARTESIAN_POINT('Origin',(4.99999999999999,0.,59.985));
#991=CARTESIAN_POINT('',(4.99999999999999,0.,59.985));
#992=CARTESIAN_POINT('',(4.99999999999999,0.,59.985));
#993=CARTESIAN_POINT('',(4.99999999999999,0.,59.985));
#994=CARTESIAN_POINT('Origin',(-5.,0.,59.985));
#995=CARTESIAN_POINT('Origin',(-5.,0.,59.985));
#996=CARTESIAN_POINT('Origin',(-4.99999999999999,0.,4.99999999999999));
#997=CARTESIAN_POINT('',(-6.7,3.,4.99999999999999));
#998=CARTESIAN_POINT('Origin',(-4.99999999999999,3.,4.99999999999999));
#999=CARTESIAN_POINT('',(-6.7,0.,4.99999999999999));
#1000=CARTESIAN_POINT('',(-6.7,0.,4.99999999999999));
#1001=CARTESIAN_POINT('Origin',(-4.99999999999999,0.,4.99999999999999));
#1002=CARTESIAN_POINT('Origin',(-94.982,0.,59.985));
#1003=CARTESIAN_POINT('',(-96.682,3.,59.985));
#1004=CARTESIAN_POINT('Origin',(-94.982,3.,59.985));
#1005=CARTESIAN_POINT('',(-96.682,0.,59.985));
#1006=CARTESIAN_POINT('',(-96.682,0.,59.985));
#1007=CARTESIAN_POINT('Origin',(-94.982,0.,59.985));
#1008=CARTESIAN_POINT('Origin',(-5.,0.,59.985));
#1009=CARTESIAN_POINT('',(-6.7,3.,59.985));
#1010=CARTESIAN_POINT('Origin',(-5.,3.,59.985));
#1011=CARTESIAN_POINT('',(-6.69999999999999,0.,59.985));
#1012=CARTESIAN_POINT('',(-6.69999999999999,0.,59.985));
#1013=CARTESIAN_POINT('Origin',(-5.,0.,59.985));
#1014=CARTESIAN_POINT('Origin',(-94.982,0.,5.00000000000001));
#1015=CARTESIAN_POINT('',(-96.682,3.,5.00000000000001));
#1016=CARTESIAN_POINT('Origin',(-94.982,3.,5.00000000000001));
#1017=CARTESIAN_POINT('',(-96.682,0.,5.00000000000001));
#1018=CARTESIAN_POINT('',(-96.682,0.,5.00000000000001));
#1019=CARTESIAN_POINT('Origin',(-94.982,0.,5.00000000000001));
#1020=CARTESIAN_POINT('Origin',(-49.991,3.,32.4925));
#1021=CARTESIAN_POINT('Origin',(-49.991,0.,32.4925));
#1022=UNCERTAINTY_MEASURE_WITH_UNIT(LENGTH_MEASURE(0.01),#1026,
'DISTANCE_ACCURACY_VALUE',
'Maximum model space distance between geometric entities at asserted c
onnectivities');
#1023=UNCERTAINTY_MEASURE_WITH_UNIT(LENGTH_MEASURE(0.01),#1026,
'DISTANCE_ACCURACY_VALUE',
'Maximum model space distance between geometric entities at asserted c
onnectivities');
#1024=(
GEOMETRIC_REPRESENTATION_CONTEXT(3)
GLOBAL_UNCERTAINTY_ASSIGNED_CONTEXT((#1022))
GLOBAL_UNIT_ASSIGNED_CONTEXT((#1026,#1028,#1029))
REPRESENTATION_CONTEXT('','3D')
);
#1025=(
GEOMETRIC_REPRESENTATION_CONTEXT(3)
GLOBAL_UNCERTAINTY_ASSIGNED_CONTEXT((#1023))
GLOBAL_UNIT_ASSIGNED_CONTEXT((#1026,#1028,#1029))
REPRESENTATION_CONTEXT('','3D')
);
#1026=(
LENGTH_UNIT()
NAMED_UNIT(*)
SI_UNIT(.MILLI.,.METRE.)
);
#1027=(
LENGTH_UNIT()
NAMED_UNIT(*)
SI_UNIT($,.METRE.)
);
#1028=(
NAMED_UNIT(*)
PLANE_ANGLE_UNIT()
SI_UNIT($,.RADIAN.)
);
#1029=(
NAMED_UNIT(*)
SI_UNIT($,.STERADIAN.)
SOLID_ANGLE_UNIT()
);
#1030=SHAPE_DEFINITION_REPRESENTATION(#1031,#1032);
#1031=PRODUCT_DEFINITION_SHAPE('',$,#1034);
#1032=SHAPE_REPRESENTATION('',(#622),#1024);
#1033=PRODUCT_DEFINITION_CONTEXT('part definition',#1038,'design');
#1034=PRODUCT_DEFINITION('2026-07-27-19-52-51-280','realCaseForHackpad',
#1035,#1033);
#1035=PRODUCT_DEFINITION_FORMATION('',$,#1040);
#1036=PRODUCT_RELATED_PRODUCT_CATEGORY('realCaseForHackpad',
'realCaseForHackpad',(#1040));
#1037=APPLICATION_PROTOCOL_DEFINITION('international standard',
'automotive_design',2009,#1038);
#1038=APPLICATION_CONTEXT(
'Core Data for Automotive Mechanical Design Process');
#1039=PRODUCT_CONTEXT('part definition',#1038,'mechanical');
#1040=PRODUCT('2026-07-27-19-52-51-280','realCaseForHackpad',$,(#1039));
#1041=PRESENTATION_STYLE_ASSIGNMENT((#1042));
#1042=SURFACE_STYLE_USAGE(.BOTH.,#1043);
#1043=SURFACE_SIDE_STYLE('',(#1044));
#1044=SURFACE_STYLE_FILL_AREA(#1045);
#1045=FILL_AREA_STYLE('Steel - Satin',(#1046));
#1046=FILL_AREA_STYLE_COLOUR('Steel - Satin',#1047);
#1047=COLOUR_RGB('Steel - Satin',0.627450980392157,0.627450980392157,0.627450980392157);
ENDSEC;
END-ISO-10303-21;
